<svg width="100%" viewBox="0 0 800 200" xmlns="http://www.w3.org/2000/svg">
  <defs>
    <linearGradient id="bg" x1="0%" y1="0%" x2="100%" y2="100%">
      <stop offset="0%" stop-color="#0F0F1A"/>
      <stop offset="100%" stop-color="#1A1A2E"/>
    </linearGradient>
    <linearGradient id="textgrad" x1="0%" y1="0%" x2="100%" y2="0%">
      <stop offset="0%" stop-color="#06B6D4"/>
      <stop offset="100%" stop-color="#818CF8"/>
    </linearGradient>
    <linearGradient id="wave1" x1="0%" y1="0%" x2="100%" y2="0%">
      <stop offset="0%" stop-color="#06B6D4" stop-opacity="0.3"/>
      <stop offset="100%" stop-color="#4F46E5" stop-opacity="0.1"/>
    </linearGradient>
    <linearGradient id="wave2" x1="0%" y1="0%" x2="100%" y2="0%">
      <stop offset="0%" stop-color="#4F46E5" stop-opacity="0.2"/>
      <stop offset="100%" stop-color="#06B6D4" stop-opacity="0.05"/>
    </linearGradient>
  </defs>

  <rect width="800" height="200" rx="12" fill="url(#bg)"/>

  <path d="M0 140 Q200 100 400 130 Q600 160 800 120 L800 200 L0 200 Z" fill="url(#wave2)"/>
  <path d="M0 160 Q200 130 400 155 Q600 180 800 150 L800 200 L0 200 Z" fill="url(#wave1)"/>

  <circle cx="60" cy="40" r="3" fill="#06B6D4" opacity="0.6"/>
  <circle cx="90" cy="25" r="2" fill="#818CF8" opacity="0.5"/>
  <circle cx="40" cy="65" r="1.5" fill="#06B6D4" opacity="0.4"/>
  <circle cx="730" cy="35" r="3" fill="#818CF8" opacity="0.6"/>
  <circle cx="755" cy="55" r="2" fill="#06B6D4" opacity="0.5"/>
  <circle cx="710" cy="60" r="1.5" fill="#818CF8" opacity="0.4"/>
  <circle cx="400" cy="18" r="1.5" fill="#06B6D4" opacity="0.3"/>
  <circle cx="200" cy="22" r="2" fill="#818CF8" opacity="0.3"/>
  <circle cx="600" cy="20" r="2" fill="#06B6D4" opacity="0.3"/>

  <line x1="120" y1="95" x2="170" y2="95" stroke="#06B6D4" stroke-width="1.5" stroke-opacity="0.4" stroke-linecap="round"/>
  <line x1="630" y1="95" x2="680" y2="95" stroke="#818CF8" stroke-width="1.5" stroke-opacity="0.4" stroke-linecap="round"/>

  <text x="400" y="95" text-anchor="middle" dominant-baseline="middle"
    font-family="Segoe UI, Arial, sans-serif" font-size="42" font-weight="700"
    fill="url(#textgrad)">
    José Novais
  </text>

  <text x="400" y="135" text-anchor="middle" dominant-baseline="middle"
    font-family="Segoe UI, Arial, sans-serif" font-size="14"
    fill="#94A3B8" letter-spacing="2">
    TELECOM &amp; INFORMATICS ENGINEER  ·  GUIMARÃES, PORTUGAL
  </text>
</svg>
